<?xml version="1.0" standalone="no"?>
<!DOCTYPE svg PUBLIC "-//W3C//DTD SVG 20010904//EN"
 "http://www.w3.org/TR/2001/REC-SVG-20010904/DTD/svg10.dtd">
<svg version="1.0" xmlns="http://www.w3.org/2000/svg"
 width="683.000000pt" height="858.000000pt" viewBox="0 0 683.000000 858.000000"
 preserveAspectRatio="xMidYMid meet">
<metadata>
Created by potrace 1.16, written by Peter Selinger 2001-2019
</metadata>
<g transform="translate(0.000000,858.000000) scale(0.100000,-0.100000)"
fill="#000000" stroke="none">
<path d="M2929 6689 c-572 -62 -1009 -576 -976 -1148 9 -162 37 -272 104 -421
35 -77 54 -96 80 -81 10 5 345 337 746 738 494 495 727 735 727 749 0 35 -190
116 -345 148 -94 19 -243 26 -336 15z m371 -87 c93 -25 180 -57 206 -77 18
-13 -21 -55 -676 -710 -600 -600 -697 -693 -707 -679 -17 24 -73 181 -84 239
-71 357 30 701 278 949 114 114 225 183 409 255 17 7 71 21 120 31 119 26 342
22 454 -8z"/>
<path d="M3226 5411 c-433 -433 -737 -744 -734 -752 11 -35 231 -125 363 -149
568 -101 1106 241 1261 801 20 72 27 127 31 236 8 210 -16 339 -99 516 -33 69
-46 87 -62 87 -15 0 -252 -231 -760 -739z m811 504 c50 -145 65 -341 38 -495
-76 -433 -396 -757 -834 -845 -116 -24 -342 -16 -456 15 -66 18 -187 63 -205
77 -2 2 311 319 695 703 l700 700 19 -42 c10 -24 29 -74 43 -113z"/>
<path d="M1385 3889 c-66 -16 -171 -41 -232 -55 l-113 -27 0 -331 c0 -182 -5
-497 -10 -700 -6 -203 -8 -371 -6 -374 5 -4 498 37 504 43 2 1 6 53 10 114 5
81 4 111 -4 111 -7 0 -71 -13 -144 -30 -73 -16 -134 -30 -136 -30 -2 0 -4 110
-4 244 l0 245 43 6 c23 3 71 9 107 13 l65 7 3 78 c2 42 -1 77 -5 77 -4 0 -45
-9 -91 -20 -135 -32 -122 -53 -122 189 0 116 4 212 8 215 5 3 68 10 140 17
109 10 132 15 133 28 1 9 4 60 8 114 7 115 22 108 -154 66z"/>
<path d="M1760 3901 l-85 -17 -6 -365 c-3 -200 -7 -534 -8 -741 l-1 -378 31 0
c58 0 374 32 380 38 10 12 52 222 46 228 -3 4 -60 -8 -127 -26 -66 -18 -122
-31 -123 -29 -3 3 12 680 26 1162 l4 147 -26 -1 c-14 -1 -64 -9 -111 -18z"/>
<path d="M2500 3901 c-41 -10 -81 -20 -89 -22 -11 -4 -52 -205 -153 -739 -76
-403 -136 -735 -134 -737 6 -6 169 27 178 35 4 4 15 54 25 110 11 69 23 106
33 112 33 17 233 52 239 41 4 -6 17 -76 30 -156 17 -103 27 -145 37 -145 24 0
169 33 177 40 5 4 -44 335 -107 736 -64 401 -116 733 -116 737 0 11 -37 7
-120 -12z m35 -769 c21 -149 36 -274 34 -276 -6 -5 -189 -43 -192 -40 -2 2 22
138 52 303 31 165 59 297 62 293 3 -4 23 -130 44 -280z"/>
<path d="M3011 3909 c-35 -4 -64 -9 -66 -11 -1 -2 -8 -264 -14 -583 -7 -319
-16 -654 -21 -745 -4 -91 -6 -167 -4 -169 1 -2 44 5 95 15 l91 19 -6 135 c-12
280 -18 505 -13 500 20 -19 123 -470 142 -622 l6 -48 59 0 c68 0 61 -11 80
125 14 96 71 348 105 460 l24 80 0 -58 c1 -33 -4 -180 -10 -329 -6 -148 -9
-272 -7 -274 3 -2 46 4 97 13 l93 17 -6 75 c-7 83 -22 596 -32 1094 -5 271 -8
317 -21 317 -8 0 -55 -7 -104 -16 -64 -12 -90 -21 -93 -33 -3 -9 -30 -194 -62
-411 -31 -217 -60 -398 -63 -402 -4 -4 -34 187 -66 425 l-60 432 -40 1 c-22 1
-69 -2 -104 -7z"/>
<path d="M4071 3898 c-47 -10 -87 -21 -89 -23 -7 -6 -282 -1468 -278 -1473 3
-3 176 28 183 32 1 1 10 48 19 105 10 57 23 108 29 115 6 6 63 22 125 35 86
17 114 20 120 11 4 -7 18 -76 30 -154 13 -77 24 -143 26 -145 7 -8 186 33 190
44 4 9 -165 1105 -217 1413 -13 72 -7 70 -138 40z m78 -1014 l1 -31 -95 -19
c-84 -18 -95 -19 -95 -5 0 22 100 562 107 581 6 15 81 -465 82 -526z"/>
<path d="M4985 3909 c-27 -4 -65 -11 -82 -14 l-33 -6 -2 -495 -3 -495 -91 501
c-51 276 -94 504 -97 507 -3 2 -45 -3 -94 -14 l-88 -18 -3 -737 c-1 -406 1
-738 5 -738 4 0 49 7 100 17 l93 16 0 34 c0 33 -34 451 -45 548 -4 36 -3 46 5
35 27 -40 151 -480 166 -589 4 -29 12 -55 19 -57 11 -5 195 33 203 41 4 4 41
1228 42 1378 0 110 7 103 -95 86z"/>
</g>
</svg>
